<svg xmlns="http://www.w3.org/2000/svg" id="图层_1" width="29.25" height="23.1" x="0" y="0" version="1.1" viewBox="0 0 29.25 23.1" xml:space="preserve"><style id="style51" type="text/css">.st0{fill:#222}</style><title id="title53">Squarespace</title><path id="path55" fill="#222" d="M4.675 12.3c.4.4 1 .4 1.4 0l9.2-9.2c1.3-1.3 3.4-1.3 4.8 0 .4.4 1 .4 1.4 0 .4-.4.4-1 0-1.4-2.1-2.1-5.5-2.1-7.6 0l-9.2 9.2c-.4.4-.4 1 0 1.4z" class="st0"/><path id="path57" fill="#222" d="M24.475 10.9c-.4-.4-1-.4-1.4 0l-9.2 9.2c-1.3 1.3-3.4 1.3-4.8 0-.4-.4-1-.4-1.4 0-.4.4-.4 1 0 1.4 2.1 2.1 5.5 2.1 7.6 0l9.2-9.2c.4-.4.4-1 0-1.4z" class="st0"/><path id="path59" fill="#222" d="M18.375 6.1c.4-.4.4-1 0-1.4-.4-.4-1-.4-1.4 0l-9.2 9.2c-1.3 1.3-3.4 1.3-4.8 0-1.3-1.3-1.3-3.4 0-4.8l7.4-7.4c.4-.4.4-1 0-1.4-.4-.4-1-.4-1.4 0l-7.4 7.5c-2.1 2.1-2.1 5.5 0 7.6 2.1 2.1 5.5 2.1 7.6 0z" class="st0"/><path id="path61" fill="#222" d="M20.075 7.8l-9.2 9.2c-.4.4-.4 1 0 1.4.4.4 1 .4 1.4 0l9.2-9.2c1.3-1.3 3.4-1.3 4.8 0 1.3 1.3 1.3 3.4 0 4.8l-7.4 7.4c-.4.4-.4 1 0 1.4.4.4 1 .4 1.4 0l7.4-7.4c2.1-2.1 2.1-5.5 0-7.6-2.2-2.1-5.6-2.1-7.6 0z" class="st0"/></svg>