<svg xmlns="http://www.w3.org/2000/svg" id="图层_1" width="128.9" height="128.9" x="0" y="0" version="1.1" viewBox="0 0 128.9 128.9" xml:space="preserve"><style id="style40" type="text/css">.st1{fill-rule:evenodd;clip-rule:evenodd;fill:#fff}</style><title id="title42">trello-logo-blue-flat</title><g id="Page-1" transform="translate(-32.2 -23.2)"><g id="Logos" transform="translate(-509 -485)"><g id="Group" transform="translate(-9 1)"><g id="Trello-Logo" transform="translate(468)"><g id="Trello-Logo---Blue---Flat" transform="translate(0 420)"><g id="Logo" transform="translate(50 64)"><g id="g55" transform="translate(50 1)"><g id="Mark" transform="translate(0 35)"><linearGradient id="Board_1_" x1="-69.345" x2="-69.345" y1="446.618" y2="445.618" gradientTransform="matrix(128.9062 0 0 -128.9062 8985.662 57559.098)" gradientUnits="userSpaceOnUse"><stop id="stop46" offset="0" stop-color="#0079bf"/><stop id="stop48" offset="1" stop-color="#0079bf"/></linearGradient><path id="Board" fill="url(#Board_1_)" fill-rule="evenodd" d="M-1.7-12.8H95c8.9 0 16.1 7.2 16.1 16.1V100c0 8.9-7.2 16.1-16.1 16.1H-1.7c-8.9 0-16.1-7.2-16.1-16.1V3.3c0-8.9 7.2-16.1 16.1-16.1z" clip-rule="evenodd"/><path id="Right-List" fill="#fff" fill-rule="evenodd" d="M62.8 4h23.8c4.3 0 7.7 3.5 7.7 7.7v40.9c0 4.3-3.5 7.7-7.7 7.7H62.8c-4.3 0-7.7-3.5-7.7-7.7V11.7c0-4.3 3.4-7.7 7.7-7.7z" class="st1" clip-rule="evenodd"/><path id="Left-List" fill="#fff" fill-rule="evenodd" d="M6.7 4h23.8c4.3 0 7.7 3.5 7.7 7.7v73.2c0 4.3-3.5 7.7-7.7 7.7H6.7c-4.3 0-7.7-3.5-7.7-7.7V11.7C-1 7.4 2.4 4 6.7 4z" class="st1" clip-rule="evenodd"/></g></g></g></g></g></g></g></g></svg>